<?xml version="1.0" encoding="iso-8859-1"?>
<!-- Uploaded to: SVG Repo, www.svgrepo.com, Generator: SVG Repo Mixer Tools -->
<svg fill="#000000" height="800px" width="800px" version="1.1" id="Layer_1" xmlns="http://www.w3.org/2000/svg" xmlns:xlink="http://www.w3.org/1999/xlink" 
	 viewBox="0 0 512 512" xml:space="preserve">
<g>
	<g>
		<path d="M495.568,419.467l-95.517-95.517c12.37-40.003,2.759-85.402-28.85-117.011c-14.226-14.226-31.485-24.313-50.316-29.675
			c0.572-5.533,0.861-11.1,0.861-16.664c0-87.863-71.084-160.6-160.6-160.6C71.361,0,0.546,73.045,0.546,160.6
			c0,89.74,73.492,160.894,160.6,160.894c2.373,0,13.922-0.894,15.374-1.031c5.176,18.796,15.129,36.541,29.873,51.285
			c31.739,31.739,77.059,41.317,117.07,28.909l95.456,95.456c21.179,21.18,55.465,21.185,76.648,0
			C516.75,474.932,516.75,440.649,495.568,419.467z M53.862,92.223c7.941,3.762,16.559,7.078,25.722,9.903
			c-2.71,13.303-4.476,27.35-5.255,41.803H34.981C37.456,125.096,44.062,107.545,53.862,92.223z M34.981,177.271h39.33
			c0.759,14.356,2.501,28.308,5.165,41.535c-9.178,2.835-17.809,6.162-25.759,9.938C43.999,213.478,37.444,196.011,34.981,177.271z
			 M76.222,255.29c3.856-1.538,7.906-2.959,12.098-4.275c2.374,6.651,5.01,12.997,7.925,18.945c0.014,0.03,0.03,0.059,0.044,0.089
			C89.118,265.783,82.398,260.835,76.222,255.29z M96.247,51.533c-2.85,5.815-5.436,12.007-7.77,18.495
			c-4.176-1.315-8.214-2.737-12.067-4.283c6.185-5.532,12.912-10.466,20.091-14.719C96.417,51.196,96.33,51.362,96.247,51.533z
			 M144.475,280.826c-8.625-7.482-16.804-20.395-23.292-37.303c7.564-1.148,15.363-1.972,23.292-2.458V280.826z M144.475,207.655
			c-11.114,0.598-21.986,1.792-32.464,3.54c-2.098-10.561-3.588-21.929-4.31-33.924h36.774V207.655z M144.475,143.929h-36.756
			c0.741-12.104,2.267-23.568,4.409-34.205c10.442,1.737,21.275,2.925,32.347,3.521V143.929z M144.475,79.856
			c-7.9-0.468-15.627-1.263-23.102-2.375c6.457-16.668,14.561-29.404,23.102-36.812V79.856z M287.311,143.929h-39.348
			c-0.778-14.453-2.545-28.5-5.255-41.803c9.163-2.825,17.78-6.139,25.722-9.903C278.229,107.545,284.836,125.096,287.311,143.929z
			 M256.666,177.271c-3.075,0.876-6.796,2.123-8.847,2.919c0.061-0.97,0.107-1.945,0.158-2.919H256.666z M245.883,65.745
			c-3.853,1.546-7.891,2.969-12.068,4.283c-2.333-6.489-4.919-12.679-7.77-18.495c-0.084-0.171-0.171-0.336-0.255-0.507
			C232.97,55.278,239.697,60.213,245.883,65.745z M177.818,40.667c8.54,7.41,16.645,20.146,23.102,36.814
			c-7.475,1.113-15.203,1.907-23.102,2.375V40.667z M177.817,113.245c11.073-0.596,21.906-1.784,32.348-3.521
			c2.142,10.637,3.667,22.101,4.409,34.205h-36.757V113.245z M177.817,253.696v-12.648c1.58,0.094,3.159,0.199,4.729,0.32
			C180.732,245.385,179.158,249.502,177.817,253.696z M177.817,207.665v-30.394h36.776c-0.492,8.3-1.352,16.461-2.585,24.413
			c-3.65,3.206-6.265,5.845-8.675,8.441C194.983,208.949,186.46,208.128,177.817,207.665z M229.971,348.171
			c-33.03-33.031-31.671-85.918-0.058-117.595c0.019-0.019,0.037-0.04,0.057-0.059c0.002-0.002,0.003-0.003,0.006-0.006
			c32.684-32.672,85.355-32.289,117.649,0.004c32.365,32.366,32.608,85.449-0.372,118.011
			C314.69,380.699,262.344,380.544,229.971,348.171z M408.51,438.551l-53.366-53.366c5.308-3.681,10.944-8.329,16.029-13.411
			c0.009-0.009,0.019-0.018,0.028-0.027c0.01-0.01,0.019-0.02,0.028-0.029c4.738-4.741,9.33-10.194,13.397-16.039l53.378,53.377
			L408.51,438.551z M471.99,472.537c-8.151,8.151-21.341,8.151-29.494,0l-10.41-10.41l29.494-29.495l10.41,10.41
			C480.141,451.194,480.142,464.386,471.99,472.537z"/>
	</g>
</g>
<g>
	<g>
		<path d="M335.05,243.091c-25.563-25.564-66.941-25.567-92.506,0c-25.504,25.504-25.504,67.001,0,92.505
			c25.563,25.565,66.937,25.567,92.506,0C360.552,310.092,360.552,268.595,335.05,243.091z M311.472,312.02
			c-12.531,12.531-32.818,12.536-45.353,0c-12.502-12.505-12.502-32.849,0.001-45.353c12.53-12.532,32.818-12.535,45.352,0
			C323.976,279.171,323.976,299.517,311.472,312.02z"/>
	</g>
</g>
</svg>